<svg width="159" height="23" viewBox="0 0 159 23" fill="none" xmlns="http://www.w3.org/2000/svg">
<g clip-path="url(#clip0_2_919)">
<path d="M10.2273 17.2471H7.63863V9.6889C7.63863 8.74908 7.46141 8.05206 7.11194 7.58958C6.75916 7.1271 6.21094 6.89421 5.46397 6.89421C4.46856 6.89421 3.73981 7.22125 3.27441 7.87532C2.81231 8.52775 2.57713 9.61787 2.57713 11.1407V17.2471H0V4.98814H2.01897L2.38169 6.5936H2.51419C2.85041 6.01055 3.339 5.55963 3.97831 5.24251C4.61928 4.92538 5.32319 4.76682 6.08838 4.76682C7.95662 4.76682 9.19219 5.40768 9.80003 6.69601H9.97394C10.3333 6.08818 10.8385 5.61744 11.4894 5.27719C12.1387 4.93694 12.8856 4.76847 13.7253 4.76847C15.1746 4.76847 16.2313 5.1368 16.8938 5.87511C17.5546 6.61507 17.8858 7.74154 17.8858 9.25615V17.2488H15.3071V9.6889C15.3071 8.74908 15.1298 8.05206 14.7754 7.58958C14.421 7.1271 13.8678 6.89421 13.1225 6.89421C12.1221 6.89421 11.3867 7.21134 10.923 7.84394C10.4559 8.47489 10.2257 9.4461 10.2257 10.7526V17.2471H10.2273Z" fill="#0055A9"/>
<path d="M26.0197 17.4668C24.1332 17.4668 22.6575 16.9118 21.5925 15.8002C20.5292 14.687 19.9959 13.1558 19.9959 11.2052C19.9959 9.2545 20.4911 7.62757 21.4766 6.48294C22.4637 5.33831 23.8218 4.76682 25.5493 4.76682C27.1509 4.76682 28.4179 5.25572 29.3454 6.23683C30.2763 7.22125 30.7383 8.574 30.7383 10.2967V11.7056H22.6542C22.6906 12.8949 23.0086 13.8083 23.6098 14.4458C24.2094 15.0867 25.0541 15.4071 26.1439 15.4071C26.8594 15.4071 27.5285 15.3394 28.1463 15.2023C28.7641 15.0669 29.4266 14.8389 30.1371 14.5201V16.6376C29.5094 16.9432 28.8734 17.1546 28.2275 17.2785C27.5815 17.404 26.8478 17.4668 26.0213 17.4668H26.0197ZM25.5477 6.73895C24.7295 6.73895 24.0719 6.99992 23.58 7.52682C23.0865 8.05206 22.7917 8.81515 22.6956 9.82269H28.2043C28.1877 8.81019 27.9476 8.0405 27.4788 7.52021C27.0101 6.99992 26.3675 6.73895 25.546 6.73895H25.5477Z" fill="#0055A9"/>
<path d="M38.2063 17.4668C36.3182 17.4668 34.8425 16.9118 33.7775 15.8002C32.7126 14.687 32.1809 13.1558 32.1809 11.2052C32.1809 9.2545 32.6745 7.62757 33.6616 6.48294C34.6471 5.33831 36.0068 4.76682 37.7327 4.76682C39.3343 4.76682 40.5996 5.25572 41.5288 6.23683C42.4596 7.22125 42.9233 8.574 42.9233 10.2967V11.7056H34.8375C34.8723 12.8949 35.1903 13.8083 35.7932 14.4458C36.3928 15.0867 37.2358 15.4071 38.3256 15.4071C39.0428 15.4071 39.7102 15.3394 40.3297 15.2023C40.9474 15.0669 41.6083 14.8389 42.3205 14.5201V16.6376C41.6928 16.9432 41.0568 17.1546 40.4125 17.2785C39.7665 17.404 39.0328 17.4668 38.2063 17.4668ZM37.7327 6.73895C36.9145 6.73895 36.2569 6.99992 35.765 7.52682C35.2715 8.05206 34.9767 8.81515 34.8806 9.82269H40.3893C40.3744 8.81019 40.1342 8.0405 39.6655 7.52021C39.1984 6.99992 38.5542 6.73895 37.7327 6.73895Z" fill="#0055A9"/>
<path d="M49.6096 15.3625C50.239 15.3625 50.8667 15.2618 51.4978 15.0619V17.0258C51.2145 17.1497 50.8452 17.257 50.3947 17.3396C49.9458 17.4239 49.4788 17.4668 48.9968 17.4668C46.5555 17.4668 45.3315 16.1653 45.3315 13.5655V6.9603H43.6769V5.80906L45.4541 4.85603L46.3319 2.2612H47.9219V4.98817H51.3802V6.9603H47.9219V13.5225C47.9219 14.1518 48.0776 14.6143 48.389 14.9133C48.7003 15.2155 49.1078 15.3625 49.6113 15.3625H49.6096Z" fill="#0055A9"/>
<path d="M53.0049 1.74256C53.0049 1.27678 53.1325 0.918358 53.3859 0.665648C53.6376 0.41624 53.997 0.29071 54.4674 0.29071C54.9378 0.29071 55.2724 0.41624 55.5258 0.665648C55.7792 0.918358 55.905 1.27513 55.905 1.74256C55.905 2.20999 55.7775 2.53538 55.5258 2.78809C55.274 3.04245 54.9196 3.16963 54.4674 3.16963C54.0153 3.16963 53.6376 3.04245 53.3859 2.78809C53.1341 2.53373 53.0049 2.18522 53.0049 1.74256ZM55.7378 17.2471H53.1606V4.98981H55.7378V17.2471Z" fill="#0055A9"/>
<path d="M69.3373 17.2471H66.7469V9.71202C66.7469 8.7656 66.5581 8.05867 66.1821 7.59289C65.8061 7.12711 65.2082 6.89422 64.3884 6.89422C63.2969 6.89422 62.5019 7.22125 61.9968 7.87037C61.4933 8.52114 61.2415 9.60962 61.2415 11.1391V17.2455H58.6611V4.9898H60.6834L61.0444 6.59526H61.1769C61.5413 6.01055 62.0614 5.55964 62.7338 5.24416C63.4079 4.92538 64.1532 4.76517 64.9714 4.76517C67.8831 4.76517 69.3406 6.25996 69.3406 9.25285V17.2455H69.3389L69.3373 17.2471Z" fill="#0055A9"/>
<path d="M82.4117 4.9898V6.41687L80.3381 6.80667C80.5252 7.06434 80.6826 7.38146 80.8084 7.76136C80.931 8.13795 80.9956 8.53435 80.9956 8.95719C80.9956 10.2207 80.5633 11.2151 79.7004 11.9385C78.8375 12.6636 77.6483 13.0237 76.1345 13.0237C75.7486 13.0237 75.3958 12.9956 75.0811 12.9361C74.5246 13.283 74.248 13.6893 74.248 14.1535C74.248 14.4309 74.3789 14.6457 74.6373 14.7877C74.8973 14.9265 75.3743 14.9975 76.0699 14.9975H78.1866C79.5265 14.9975 80.5434 15.2849 81.2391 15.8597C81.9314 16.4378 82.2809 17.2686 82.2809 18.357C82.2809 19.7428 81.7128 20.8164 80.5782 21.568C79.4437 22.3211 77.8057 22.6994 75.6608 22.6994C74.0095 22.6994 72.7475 22.4054 71.8763 21.8124C71.0051 21.2195 70.5695 20.3804 70.5695 19.2853C70.5695 18.5338 70.808 17.9012 71.2784 17.3842C71.7504 16.8738 72.4096 16.5154 73.2576 16.3155C72.9148 16.1669 72.6299 15.9307 72.408 15.6004C72.1844 15.2733 72.0734 14.9248 72.0734 14.5664C72.0734 14.1056 72.2009 13.7174 72.4593 13.3986C72.7127 13.0832 73.0936 12.7693 73.5988 12.4588C72.9694 12.1846 72.461 11.7403 72.0684 11.1226C71.6759 10.5065 71.4805 9.78304 71.4805 8.95554C71.4805 7.62592 71.8962 6.5936 72.726 5.86355C73.5574 5.13184 74.7383 4.76682 76.2753 4.76682C76.6198 4.76682 76.9809 4.78994 77.3568 4.83784C77.7328 4.88739 78.016 4.93694 78.2065 4.98814H82.4117V4.9898ZM72.875 19.1581C72.875 19.7181 73.1268 20.1508 73.627 20.4531C74.1271 20.757 74.831 20.9073 75.7403 20.9073C77.1465 20.9073 78.1899 20.7025 78.8789 20.2961C79.5646 19.8915 79.9091 19.3514 79.9091 18.6791C79.9091 18.1473 79.7203 17.7674 79.3443 17.5428C78.9667 17.3181 78.2678 17.2042 77.2425 17.2042H75.2915C74.5528 17.2042 73.9648 17.3809 73.5309 17.7327C73.0953 18.0812 72.8767 18.5586 72.8767 19.1565L72.875 19.1581ZM73.9847 8.96049C73.9847 9.73019 74.1785 10.3215 74.571 10.7328C74.9619 11.1474 75.5217 11.3538 76.2538 11.3538C77.7477 11.3538 78.493 10.5494 78.493 8.93737C78.493 8.14125 78.3075 7.52351 77.9382 7.09242C77.5705 6.66132 77.009 6.44495 76.2538 6.44495C75.4985 6.44495 74.9404 6.65967 74.5578 7.08581C74.1719 7.51525 73.983 8.14125 73.983 8.96049H73.9847Z" fill="#0055A9"/>
<path d="M89.1527 17.4668C87.3159 17.4668 85.976 16.7731 85.1362 15.3856H85.0584L85.0932 16.3172C85.1213 16.8623 85.1362 17.4635 85.1362 18.1143V22.6994H84.0497V5.19957H84.9706L85.181 6.91734H85.2472C86.0654 5.6191 87.3738 4.96667 89.1742 4.96667C90.7841 4.96667 92.0113 5.50018 92.8577 6.56718C93.7007 7.63583 94.1247 9.18843 94.1247 11.2283C94.1247 13.2681 93.6792 14.7464 92.7931 15.8349C91.9037 16.925 90.6896 17.4684 89.1543 17.4684L89.1527 17.4668ZM89.1295 16.4939C90.3534 16.4939 91.2992 16.0364 91.9666 15.1197C92.6374 14.2047 92.9703 12.9246 92.9703 11.2745C92.9703 7.73493 91.7082 5.96431 89.1758 5.96431C87.7846 5.96431 86.7643 6.3508 86.1134 7.1238C85.4625 7.89515 85.1362 9.15375 85.1362 10.8963V11.2514C85.1362 13.1344 85.4493 14.4788 86.0753 15.2849C86.6997 16.0926 87.7167 16.4939 89.1278 16.4939H89.1295Z" fill="#0055A9"/>
<path d="M103.905 17.2455L103.632 15.3394H103.542C102.943 16.114 102.326 16.6641 101.695 16.9845C101.064 17.3049 100.314 17.4668 99.4512 17.4668C98.2786 17.4668 97.371 17.1645 96.72 16.5584C96.0642 15.9538 95.7412 15.1131 95.7412 14.0445C95.7412 12.8701 96.2248 11.9567 97.1937 11.3059C98.1643 10.6568 99.5671 10.3149 101.404 10.2753L103.676 10.2092V9.41142C103.676 8.26679 103.443 7.4013 102.982 6.81825C102.524 6.23354 101.78 5.94284 100.755 5.94284C99.6516 5.94284 98.5071 6.25501 97.3229 6.8744L96.9171 5.91972C98.2256 5.30033 99.5224 4.98981 100.799 4.98981C102.076 4.98981 103.09 5.33501 103.734 6.02047C104.382 6.70758 104.706 7.77954 104.706 9.23469V17.2488H103.907L103.905 17.2455ZM99.5158 16.4708C100.789 16.4708 101.793 16.1008 102.53 15.3658C103.264 14.6308 103.632 13.6101 103.632 12.3003V11.116L101.545 11.2035C99.8719 11.2845 98.6761 11.5504 97.9622 11.9963C97.2484 12.444 96.8923 13.141 96.8923 14.0858C96.8923 14.8389 97.1209 15.4236 97.578 15.8432C98.0335 16.2594 98.6811 16.4692 99.5142 16.4692L99.5158 16.4708Z" fill="#0055A9"/>
<path d="M112.567 17.4668C110.863 17.4668 109.528 16.925 108.562 15.8382C107.595 14.753 107.113 13.2384 107.113 11.296C107.113 9.3536 107.613 7.74815 108.615 6.6349C109.619 5.52165 110.99 4.96667 112.729 4.96667C113.761 4.96667 114.748 5.14836 115.692 5.51174L115.396 6.48624C114.366 6.14104 113.471 5.96431 112.708 5.96431C111.244 5.96431 110.137 6.42183 109.384 7.33522C108.63 8.24696 108.254 9.55842 108.254 11.2762C108.254 12.9015 108.63 14.1716 109.384 15.0933C110.137 16.0133 111.191 16.4741 112.544 16.4741C113.627 16.4741 114.631 16.2759 115.562 15.8861V16.9036C114.801 17.2818 113.803 17.4684 112.565 17.4684L112.567 17.4668Z" fill="#0055A9"/>
<path d="M118.781 11.96L124.871 5.19957H126.188L121.493 10.3413L126.595 17.2455H125.289L120.757 11.1622L118.803 12.956V17.2455H117.718V0H118.801L118.803 8.64668L118.727 11.96H118.781Z" fill="#0055A9"/>
<path d="M135.072 17.2455L134.796 15.3394H134.709C134.107 16.114 133.492 16.6641 132.858 16.9845C132.227 17.3049 131.478 17.4668 130.614 17.4668C129.441 17.4668 128.532 17.1645 127.882 16.5584C127.231 15.9538 126.904 15.1131 126.904 14.0445C126.904 12.8701 127.392 11.9567 128.359 11.3059C129.328 10.6568 130.729 10.3149 132.568 10.2753L134.84 10.2092V9.41142C134.84 8.26679 134.608 7.4013 134.15 6.81825C133.689 6.23354 132.946 5.94284 131.92 5.94284C130.817 5.94284 129.671 6.25501 128.489 6.8744L128.079 5.91972C129.391 5.30033 130.685 4.98981 131.965 4.98981C133.245 4.98981 134.254 5.33501 134.9 6.02047C135.548 6.70758 135.872 7.77954 135.872 9.23469V17.2488H135.072V17.2455ZM130.681 16.4708C131.953 16.4708 132.956 16.1008 133.694 15.3658C134.43 14.6308 134.796 13.6101 134.796 12.3003V11.116L132.71 11.2035C131.036 11.2845 129.843 11.5504 129.128 11.9963C128.414 12.444 128.058 13.141 128.058 14.0858C128.058 14.8389 128.287 15.4236 128.745 15.8432C129.202 16.2594 129.848 16.4692 130.683 16.4692L130.681 16.4708Z" fill="#0055A9"/>
<path d="M148.274 5.19957V5.96266L145.806 6.11957C146.466 6.94707 146.792 7.85551 146.792 8.84488C146.792 10.006 146.411 10.9459 145.649 11.666C144.884 12.3861 143.857 12.7462 142.57 12.7462C142.028 12.7462 141.647 12.7247 141.427 12.6785C140.997 12.9064 140.667 13.1773 140.44 13.4878C140.213 13.8 140.102 14.1287 140.102 14.4739C140.102 14.8571 140.246 15.1395 140.536 15.3163C140.823 15.4947 141.31 15.5822 141.989 15.5822H144.074C145.369 15.5822 146.36 15.8465 147.047 16.3767C147.734 16.9019 148.079 17.6848 148.079 18.7204C148.079 19.9889 147.569 20.9701 146.547 21.6638C145.526 22.3542 144.072 22.6994 142.186 22.6994C140.685 22.6994 139.524 22.4054 138.699 21.824C137.878 21.2393 137.465 20.4266 137.465 19.3861C137.465 18.5569 137.721 17.8698 138.229 17.3247C138.739 16.7764 139.426 16.4047 140.298 16.2049C139.938 16.0496 139.652 15.8266 139.436 15.5459C139.221 15.2601 139.112 14.9314 139.112 14.5664C139.112 13.7587 139.622 13.0501 140.639 12.4373C139.943 12.1499 139.403 11.6957 139.014 11.0796C138.626 10.4603 138.431 9.75332 138.431 8.95555C138.431 7.75145 138.81 6.78355 139.569 6.0568C140.324 5.33005 141.346 4.96503 142.635 4.96503C143.418 4.96503 144.024 5.04101 144.455 5.19792H148.271L148.274 5.19957ZM138.62 19.2853C138.62 20.9403 139.837 21.7678 142.275 21.7678C145.406 21.7678 146.971 20.7619 146.971 18.7436C146.971 18.0201 146.726 17.4932 146.235 17.1695C145.745 16.8441 144.952 16.6806 143.854 16.6806H141.901C139.715 16.6806 138.622 17.5494 138.622 19.2853H138.62ZM139.531 8.95555C139.531 9.88711 139.811 10.6089 140.371 11.1226C140.93 11.6363 141.677 11.8923 142.615 11.8923C143.61 11.8923 144.372 11.6379 144.902 11.1292C145.434 10.6188 145.699 9.87885 145.699 8.9126C145.699 7.88689 145.425 7.11555 144.879 6.60352C144.332 6.08819 143.57 5.82887 142.592 5.82887C141.613 5.82887 140.891 6.10801 140.346 6.65803C139.801 7.20639 139.529 7.97278 139.529 8.95555H139.531Z" fill="#0055A9"/>
<path d="M154.775 17.4668C153.042 17.4668 151.691 16.9267 150.72 15.8498C149.752 14.7712 149.266 13.2599 149.266 11.3158C149.266 9.37178 149.737 7.85551 150.671 6.69932C151.607 5.54312 152.869 4.96503 154.455 4.96503C155.861 4.96503 156.969 5.46219 157.781 6.45156C158.593 7.44093 158.998 8.78542 158.998 10.4834V11.3703H150.407C150.421 13.027 150.802 14.2906 151.554 15.1627C152.302 16.0364 153.375 16.4708 154.773 16.4708C155.454 16.4708 156.052 16.4229 156.567 16.3238C157.084 16.2297 157.735 16.0248 158.525 15.7061V16.7021C157.852 16.9977 157.233 17.1992 156.66 17.3082C156.088 17.4156 155.457 17.4668 154.772 17.4668H154.775ZM154.455 5.94119C153.307 5.94119 152.387 6.32273 151.691 7.08747C150.995 7.85221 150.591 8.95555 150.474 10.3958H157.847C157.847 8.99849 157.546 7.91002 156.946 7.12381C156.347 6.33594 155.519 5.94284 154.455 5.94284V5.94119Z" fill="#0055A9"/>
<path d="M148.224 22.7126C148.224 22.6184 148.243 22.5474 148.286 22.4962C148.329 22.45 148.39 22.4252 148.47 22.4252C148.549 22.4252 148.614 22.45 148.662 22.4962C148.705 22.5474 148.728 22.6184 148.728 22.7126C148.728 22.8067 148.705 22.8778 148.662 22.9273C148.614 22.9752 148.551 23.0016 148.471 23.0016C148.4 23.0016 148.339 22.9802 148.294 22.9339C148.246 22.891 148.224 22.8167 148.224 22.7142V22.7126Z" fill="#0055A9"/>
<path d="M150.795 20.1046C150.457 20.1046 150.189 20.2202 149.993 20.4448C149.796 20.6727 149.699 20.9866 149.699 21.3797C149.699 21.7728 149.793 22.1048 149.982 22.3261C150.172 22.5491 150.441 22.6614 150.79 22.6614C151.004 22.6614 151.25 22.6201 151.525 22.5425V22.858C151.312 22.9405 151.048 22.9802 150.735 22.9802C150.28 22.9802 149.93 22.8414 149.684 22.5623C149.435 22.2848 149.314 21.8868 149.314 21.3764C149.314 21.0559 149.374 20.7752 149.49 20.534C149.607 20.2929 149.781 20.1062 150.005 19.979C150.23 19.8436 150.495 19.7792 150.797 19.7792C151.121 19.7792 151.401 19.8419 151.645 19.9592L151.494 20.2714C151.26 20.1574 151.025 20.1046 150.793 20.1046H150.795Z" fill="#0055A9"/>
<path d="M154.876 21.3764C154.876 21.8735 154.752 22.27 154.502 22.5524C154.252 22.8365 153.904 22.9785 153.461 22.9785C153.019 22.9785 152.657 22.8381 152.41 22.559C152.163 22.2782 152.039 21.8835 152.039 21.3714C152.039 20.8594 152.163 20.4712 152.41 20.1954C152.657 19.9146 153.009 19.7759 153.465 19.7759C153.92 19.7759 154.256 19.9179 154.502 20.202C154.753 20.4845 154.874 20.8759 154.874 21.3747L154.876 21.3764ZM152.42 21.3764C152.42 21.7992 152.507 22.1196 152.686 22.3377C152.865 22.5557 153.124 22.6631 153.461 22.6631C153.799 22.6631 154.063 22.5557 154.237 22.3377C154.411 22.1196 154.495 21.8009 154.495 21.3764C154.495 20.9519 154.411 20.6397 154.237 20.4267C154.063 20.207 153.806 20.0996 153.466 20.0996C153.127 20.0996 152.865 20.2086 152.686 20.43C152.509 20.6463 152.42 20.9651 152.42 21.378V21.3764Z" fill="#0055A9"/>
<path d="M156.926 22.9389L155.883 20.1772H155.866C155.886 20.3969 155.896 20.6562 155.896 20.9568V22.9372H155.567V19.8221H156.107L157.08 22.3922H157.1L158.084 19.8221H158.617V22.9372H158.261V20.9304C158.261 20.7008 158.271 20.4481 158.289 20.1805H158.273L157.218 22.9372H156.928L156.926 22.9389Z" fill="#0055A9"/>
</g>
<defs>
<clipPath id="clip0_2_919">
<rect width="159" height="23" fill="white"/>
</clipPath>
</defs>
</svg>
